<svg xmlns="http://www.w3.org/2000/svg" xmlns:xlink="http://www.w3.org/1999/xlink" fill="none" version="1.1" width="18.286865234375" height="16.000226974487305" viewBox="0 0 18.286865234375 16.000226974487305"><g><g><path d="M17.7778,2.51242C18.2844,2.93856,18.4503,3.8916,18.1042,4.43815C17.9302,4.70459,17.4254,4.83269,17.0945,4.62773C16.7797,4.44097,16.5017,4.20309,16.2731,3.92491C15.9351,3.48728,15.4521,3.17081,14.9021,3.02652C14.6026,2.9471,13.2468,2.77886,13.0675,2.91635C13.3125,3.07858,13.5467,3.25513,13.7687,3.44497C14.4456,3.97782,14.9664,4.66825,15.2805,5.44927C15.7262,6.55176,15.7064,8.16152,14.686,8.99586C13.8153,9.70381,12.6891,9.87461,11.5234,9.78921C11.4086,9.79775,11.2911,9.80799,11.1773,9.82422C11.1773,9.82422,11.1234,9.86009,11.1234,9.86009C11.0517,10.4143,11.1468,10.8396,11.4238,11.1957C11.5637,11.3759,11.709,11.557,11.8507,11.7337L11.8785,11.7687C12.2228,12.1974,12.5689,12.6287,12.8765,13.077C13.4459,13.9088,13.5929,14.668,13.3392,15.4682C13.2504,15.7483,13.0576,15.949,12.837,15.9925C12.837,15.9925,12.7716,16.0002,12.7716,16.0002L12.7474,16.0002C12.5288,15.9901,12.3263,15.8877,12.195,15.721C12.1095,15.5904,12.051,15.4455,12.0228,15.294C11.8504,15.4573,11.6327,15.5705,11.3951,15.6202C11.2092,15.6715,11.0185,15.7061,10.8257,15.7235L10.3541,15.7585C9.29869,15.8363,8.22176,15.9165,7.15918,15.9789C6.05141,16.053,4.94554,15.8116,3.9822,15.2854C3.86368,15.2163,3.76555,15.1196,3.69706,15.0045C3.64774,15.1411,3.60559,15.2769,3.55807,15.4127C3.49082,15.6048,3.36618,15.8311,3.00033,15.8773C2.58247,15.9311,2.36009,15.5536,2.32871,15.2077C2.29373,14.8294,2.36637,14.5023,2.44258,14.1565L2.47128,14.0233C2.4919,13.9276,2.51432,13.8354,2.53674,13.7457C2.17876,13.8232,1.81047,13.8482,1.44457,13.82C1.01685,13.7833,0.541601,13.6706,0.368539,13.393C0.478925,13.3935,0.588623,13.3765,0.693141,13.3426C0.601799,13.3281,0.513621,13.2993,0.432204,13.2572C0.182687,13.1345,0.0202294,12.8949,0.00537943,12.6278C-0.014485,12.3726,0.036867,12.1169,0.15423,11.8866Q0.238519,12.0155,0.304874,12.0155C0.358676,11.7559,0.627683,11.4143,0.800744,11.2897C0.993995,11.1364,1.22067,11.0262,1.4643,10.9668C1.4643,10.9668,1.55396,10.9515,1.55396,10.9515C1.65888,10.9421,1.70192,10.9737,1.64363,11.042C1.19798,11.5578,1.34504,12.0113,1.80324,12.2828C2.08378,12.4476,2.40625,12.5361,2.7358,12.539C2.82368,12.5399,2.91138,12.5354,2.99853,12.5254C3.21807,12.135,3.52402,11.7946,3.89522,11.5279C4.47718,11.1069,5.13355,10.7576,5.76841,10.4237L5.79083,10.4118C5.9603,10.3229,6.12978,10.2333,6.29746,10.1428C6.50521,10.0301,6.70101,9.89855,6.8821,9.74992C6.64734,9.76193,6.41207,9.76193,6.1773,9.74992C4.418,9.65086,2.35292,9.53301,1.69385,7.66279C1.66067,7.56714,1.32172,6.68242,1.70371,5.37326C1.96286,4.49878,2.54481,3.91466,3.24692,3.27332C4.05035,2.53548,5.00264,2.06151,6.05177,1.73615C6.11184,1.71992,5.8814,1.47568,5.35593,1.37833C5.0853,1.34028,4.80977,1.3475,4.54174,1.39968C3.57959,1.544,2.76181,2.11019,1.88036,2.46801C1.52168,2.6149,1.23743,2.51498,1.07334,2.17339C0.920902,1.85314,0.973807,1.48764,1.10024,1.16996C1.23079,0.859416,1.48053,0.607828,1.79876,0.466275C2.00948,0.369775,2.20765,0.255341,2.42645,0.175067C3.13035,-0.0853982,3.98848,-0.0384291,4.68431,0.207518C5.38015,0.453465,5.95492,0.939381,6.40237,1.49874C6.46718,1.56758,6.56094,1.60517,6.65793,1.60122C7.84694,1.43811,9.03147,1.42871,10.19,1.75835C10.8266,1.94025,11.4454,2.19986,12.073,2.41079C12.1865,2.45081,12.312,2.4462,12.4219,2.39798C13.6467,1.63623,14.9667,1.58841,16.3368,1.89243C16.8578,2.00857,17.3626,2.16314,17.7778,2.51242ZM11.1934,11.3324C10.8284,10.8627,10.7728,10.3298,10.85,9.78323C10.85,9.78323,10.8679,9.74053,10.8679,9.74053C10.0142,9.69356,9.17046,9.68161,8.30874,9.67819C7.97696,9.67819,7.6407,9.70125,7.30444,9.72345C7.04832,9.97122,6.75707,10.1836,6.43914,10.3545C5.63212,10.7892,4.79281,11.1914,4.06829,11.7209C3.31686,12.2692,2.93487,12.9763,2.75822,13.8285C2.63179,14.4349,2.30988,15.4998,2.84789,15.6416C3.3859,15.7833,3.54821,14.7594,3.59125,14.516C3.75086,13.6082,4.03959,13.6022,4.02794,13.6501C3.9302,14.0549,3.61187,14.7884,4.12388,15.0685C5.03882,15.5689,6.08976,15.7979,7.14214,15.7261C8.36344,15.6544,9.58383,15.5613,10.8042,15.4699C10.9791,15.4535,11.152,15.4217,11.3207,15.3751C11.5897,15.3059,11.8659,15.1684,11.9484,14.8943C11.9851,14.7565,11.9851,14.612,11.9484,14.4742C11.8785,14.2111,11.8085,13.9951,11.9036,13.9771C12.065,13.9464,12.108,14.3256,12.1358,14.4562C12.2111,14.8081,12.1358,15.3956,12.4506,15.6518C12.8774,16.0036,13.1571,15.5237,13.202,15.0199C13.2576,14.3896,12.9993,13.7235,12.6415,13.2026C12.195,12.5536,11.6776,11.9558,11.1934,11.3324ZM15.2859,6.77806C15.2375,5.14183,14.0045,3.81303,12.5133,2.97784C10.9773,2.11788,9.25475,1.63709,7.46226,1.75408C5.64198,1.87278,3.62622,2.86426,2.38161,4.54831C1.67502,5.50477,1.58087,6.95398,2.07315,7.87458C3.12138,9.83362,6.30374,9.46726,8.17065,9.41858C9.63674,9.38015,11.1001,9.49117,12.5644,9.43993C14.1579,9.38442,15.3334,8.31779,15.2859,6.77806Z" fill="#000000" fill-opacity="1"/></g><g><path d="M9.906899503250122,8.222591387939453C9.778909503250123,8.271861387939452,9.647719503250123,8.313221387939453,9.514149503250122,8.346421387939454C9.274709503250122,8.378761387939452,9.030919503250121,8.365701387939453,8.796799503250122,8.307991387939452C8.553589503250123,8.279571387939452,8.375169503250122,8.076421387939453,8.388799503250123,7.843421387939453C8.398659503250123,7.560751387939453,8.432739503250122,7.278941387939453,8.461429503250123,6.996271387939453C8.461429503250123,6.996271387939453,8.519719503250123,6.933071387939453,8.519719503250123,6.933071387939453C8.60938950325012,6.900621387939453,8.699059503250123,6.879271387939453,8.788719503250121,6.847681387939453C9.071629503250122,6.7651713879394535,9.339349503250123,6.641291387939454,9.582299503250123,6.480461387939453C9.790329503250122,6.328451387939453,9.802879503250121,6.122641387939453,9.618159503250123,5.944161387939453C9.465559503250123,5.804721387939453,9.276279503250123,5.707071387939453,9.070289503250123,5.661491387939453C8.619159503250122,5.535231387939453,8.141589503250122,5.521111387939453,7.683099503250122,5.620501387939453C7.5289695032501225,5.648641387939453,7.384509503250122,5.712591387939453,7.262559503250122,5.806671387939453C7.133429503250122,5.915981387939453,7.116399503250122,6.021021387939453,7.215029503250122,6.155101387939453C7.261099503250122,6.216711387939453,7.313359503250123,6.273911387939453,7.371059503250122,6.325891387939453C7.660529503250122,6.5730513879394525,7.994749503250122,6.7680813879394535,8.35741950325012,6.901481387939453C8.362519503250123,6.945711387939453,8.364319503250123,6.990221387939453,8.362799503250123,7.034701387939453C8.334099503250123,7.301991387939453,8.301819503250123,7.568441387939453,8.273129503250122,7.835731387939453C8.248919503250121,8.027031387939452,8.127859503250122,8.129501387939452,7.949419503250122,8.185011387939454C7.679139503250122,8.265821387939454,7.390839503250122,8.274971387939452,7.115499503250122,8.211491387939454C6.936159503250122,8.174761387939453,6.768479503250122,8.116691387939454,6.596319503250122,8.068021387939453C6.576589503250123,8.213191387939453,6.8455995032501225,8.385701387939452,6.946029503250122,8.455731387939453C7.163919503250122,8.607731387939452,7.356709503250122,8.645311387939454,7.613159503250122,8.703381387939453C7.753049503250121,8.734981387939452,7.901899503250123,8.744371387939452,8.043579503250122,8.767431387939453C8.195499503250122,8.796331387939453,8.349639503250122,8.813471387939453,8.504479503250122,8.818671387939453C8.811139503250121,8.818671387939453,9.110639503250123,8.834041387939454,9.393989503250122,8.712771387939453C9.646109503250123,8.609601387939453,9.863339503250122,8.442011387939452,10.021679503250123,8.228571387939454L9.999259503250123,8.194411387939454L9.906899503250122,8.222591387939453ZM5.776739503250122,4.0611297879394535C5.540009503250122,4.2148463879394535,5.435999503250122,4.665750387939453,5.582159503250122,4.900595387939453C5.662359503250122,5.050921387939454,5.872839503250122,5.083691387939453,5.999119503250122,4.965497387939453C6.1381095032501225,4.853625387939453,6.195499503250122,4.699055387939453,6.245709503250122,4.5120323879394535C6.243889503250122,4.423261387939453,6.2348895032501215,4.334755387939453,6.218809503250123,4.2472973879394536C6.162319503250123,4.023554187939453,5.959669503250122,3.942425887939453,5.776739503250122,4.0611297879394535ZM11.460869503250123,4.4018693879394535C11.360539503250122,4.308014387939453,11.197399503250121,4.315900387939453,11.107569503250122,4.418948387939453C10.974859503250123,4.554731387939453,10.974859503250123,4.725528387939454,10.975759503250123,4.892055387939453C10.976189503250122,5.038131387939453,11.036709503250123,5.178241387939453,11.144329503250123,5.282321387939453C11.257239503250123,5.4198713879394536,11.482499503250121,5.396851387939453,11.562189503250123,5.239631387939453C11.602989503250122,5.161581387939453,11.637749503250122,5.080811387939454,11.666209503250123,4.997949387939453C11.677859503250122,4.769081387939453,11.641999503250123,4.563271387939453,11.460869503250123,4.4018693879394535ZM12.096619503250123,6.822061387939453C12.112759503250121,6.886101387939453,12.197939503250122,6.907451387939453,12.218569503250123,7.078251387939453C12.223949503250122,7.126931387939453,12.240989503250121,7.186711387939454,12.302859503250122,7.201221387939453C12.422119503250123,7.231971387939453,12.392529503250122,7.070571387939453,12.377279503250122,7.015911387939453C12.377279503250122,7.001391387939453,12.368319503250122,6.986021387939453,12.363829503250122,6.970651387939453C12.343779503250122,6.900501387939453,12.300739503250123,6.838271387939454,12.240989503250121,6.7930213879394525C12.160279503250122,6.734951387939454,12.078679503250122,6.754591387939453,12.096619503250123,6.822061387939453ZM12.545859503250123,6.562441387939453C12.545859503250123,6.562441387939453,12.486679503250121,6.579521387939453,12.486679503250121,6.579521387939453C12.486679503250121,6.579521387939453,12.478609503250121,6.641871387939453,12.478609503250121,6.641871387939453C12.505509503250122,6.683971387939453,12.535459503250122,6.724191387939453,12.568279503250123,6.762281387939453C12.596699503250122,6.794561387939453,12.619749503250121,6.830851387939453,12.636429503250122,6.8698813879394525C12.636429503250122,6.8698813879394525,12.658839503250123,6.967231387939453,12.658839503250123,6.967231387939453C12.670499503250122,7.046651387939454,12.679469503250122,7.120101387939453,12.738649503250121,7.127781387939454L12.750309503250122,7.127781387939454C12.799829503250121,7.127781387939454,12.839979503250122,7.089551387939453,12.839979503250122,7.042381387939454C12.845459503250122,6.977081387939453,12.840019503250122,6.911351387939453,12.823839503250122,6.847671387939453C12.839079503250122,6.845111387939453,12.717129503250122,6.555611387939454,12.545859503250123,6.562441387939453ZM4.722231503250122,6.294291387939453C4.706091503250122,6.358341387939453,4.620905503250122,6.379691387939453,4.600281503250122,6.550491387939453C4.594901503250122,6.599171387939453,4.577864503250122,6.6589413879394534,4.515992503250122,6.673461387939453C4.396733503250122,6.704211387939453,4.4263235032501225,6.542801387939454,4.441567503250122,6.488151387939453C4.441567503250122,6.473631387939453,4.450534503250122,6.458261387939453,4.455018503250122,6.4428913879394525C4.475074503250122,6.3727413879394526,4.5181105032501225,6.310511387939453,4.577864503250122,6.265261387939454C4.6621535032501225,6.207191387939453,4.740165503250122,6.226831387939454,4.722231503250122,6.294291387939453ZM4.272989503250122,6.034681387939453C4.293972503250122,6.035021387939453,4.314506503250122,6.040921387939453,4.332171503250122,6.051761387939453C4.332171503250122,6.051761387939453,4.340241503250122,6.114101387939453,4.340241503250122,6.114101387939453C4.313340503250122,6.156201387939453,4.283391503250122,6.1964313879394535,4.2505725032501225,6.2345113879394525C4.222125503250122,6.266791387939453,4.199133503250122,6.303101387939453,4.1824235032501225,6.342121387939454C4.1824235032501225,6.342121387939454,4.160006503250122,6.439471387939453,4.160006503250122,6.439471387939453C4.148349503250122,6.518891387939453,4.139382503250122,6.592331387939453,4.080201503250122,6.600021387939453L4.068544103250122,6.600021387939453C4.019021403250122,6.600021387939453,3.978875393250122,6.5617913879394525,3.978875143250122,6.514621387939453C3.9712358432501222,6.449351387939453,3.974565455250122,6.383331387939453,3.988738803250122,6.319061387939453C3.979772023250122,6.319061387939453,4.101721503250122,6.027851387939453,4.272989503250122,6.034681387939453Z" fill="#000000" fill-opacity="1"/></g></g></svg>