<?xml version="1.0" standalone="no"?><!DOCTYPE svg PUBLIC "-//W3C//DTD SVG 1.1//EN" "http://www.w3.org/Graphics/SVG/1.1/DTD/svg11.dtd"><svg t="1720753790587" class="icon" viewBox="0 0 1024 1024" version="1.1" xmlns="http://www.w3.org/2000/svg" p-id="6691" width="32" height="32" xmlns:xlink="http://www.w3.org/1999/xlink"><path d="M524 327.1c-5.8 9.4-18.1 12.4-27.5 6.6-9.4-5.8-12.4-18.1-6.6-27.5L631.4 75.5c5.8-9.4 18.1-12.4 27.5-6.6s12.4 18.1 6.6 27.5L524 327.1z" fill="#233E49" p-id="6692"></path><path d="M495.4 326.1c5.8 9.4 18.1 12.4 27.5 6.6 9.4-5.8 12.4-18.1 6.6-27.5L388 74.5c-5.8-9.4-18.1-12.4-27.5-6.6S348.2 86 354 95.5l141.4 230.6z" fill="#233E49" p-id="6693"></path><path d="M854 893.6L797.3 756H627l171 181.6c6.5 7.2 15.1 10.4 24.4 10.4 25.1 0 41.7-28.8 31.6-54.4" fill="#EEC130" p-id="6694"></path><path d="M820 964c-13 0-25.2-5.6-34.6-15.1l-170.8-181c-4.3-4.8-5.8-11.2-3.6-17.5 2.2-6.4 7.2-10.4 13.7-10.4h170.8c5.8 0 10.8 4 13 9.6l56.9 137.1c7.2 16.7 5.8 35.9-3.6 51.8-8.6 15.9-24.5 25.5-41.8 25.5zM660.7 772.7l144.9 153.1c3.6 4 8.6 6.4 14.4 6.4 7.2 0 13.7-4 17.3-10.4 3.6-6.4 4.3-14.3 1.4-21.5l-52.6-127.5H660.7z" fill="#233E49" p-id="6695"></path><path d="M275.7 767H446L275 948.6c-6.5 7.2-15.1 10.4-24.4 10.4-25.1 0-41.7-28.8-31.6-54.4L275.7 767z" fill="#EEC130" p-id="6696"></path><path d="M242.5 964c-17.3 0-32.3-9.6-41.7-25.5-9.3-15.1-10.1-35.1-3.6-51.8L254 749.6c2.2-5.6 7.2-9.6 12.9-9.6h170.4c5.8 0 11.5 4 13.7 10.4 2.2 6.4 0.7 12.8-3.6 17.5l-171.1 181c-9.3 9.5-21.5 15.1-33.8 15.1z m33.8-191.3l-52.5 127.5c-2.9 7.2-2.2 14.3 1.4 21.5 3.6 6.4 10.1 10.4 17.3 10.4 5 0 10.8-2.4 14.4-6.4l144.5-153.1H276.3z" fill="#233E49" p-id="6697"></path><path d="M186 193h653c55.2 0 100 44.8 100 100v440c0 55.2-44.8 100-100 100H186c-55.2 0-100-44.8-100-100V293c0-55.2 44.8-100 100-100z" fill="#ECF0F0" p-id="6698"></path><path d="M103 373c0 11-9 20-20 20s-20-9-20-20v-76c0-66.1 51.4-120 115.3-120h663.4c63.9 0 115.3 53.9 115.3 120v440c0 66.1-51.4 120-115.3 120H178.3C114.4 857 63 803.1 63 737V510c0-11 9-20 20-20s20 9 20 20v227c0 44.4 33.9 80 75.3 80h663.4c41.4 0 75.3-35.6 75.3-80V297c0-44.4-33.9-80-75.3-80H178.3c-41.4 0-75.3 35.6-75.3 80v76z" fill="#233E49" p-id="6699"></path><path d="M884 403.5c0 24.8-19.7 44.5-44.5 44.5S795 428.3 795 403.5s19.7-44.5 44.5-44.5 44.5 19.7 44.5 44.5" fill="#F4CC02" p-id="6700"></path><path d="M839 460c-31.7 0-57-25.1-57-56.5s25.3-56.5 57-56.5 57 25.1 57 56.5-25.3 56.5-57 56.5z m0-87.9c-17.7 0-31.7 13.8-31.7 31.4s13.9 31.4 31.7 31.4 31.7-13.8 31.7-31.4-14-31.4-31.7-31.4z" fill="#233E49" p-id="6701"></path><path d="M827 404c0 2.8-2.2 5-5 5s-5-2.2-5-5c0-12.8 10.2-23 23-23s23 10.2 23 23c0 2.8-2.2 5-5 5s-5-2.2-5-5c0-7.3-5.7-13-13-13s-13 5.7-13 13zM887 571.5c0 24.8-19.7 44.5-44.5 44.5S798 596.3 798 571.5s19.7-44.5 44.5-44.5 44.5 19.7 44.5 44.5" fill="#FFFFFF" p-id="6702"></path><path d="M842 628c-31.7 0-57-25.1-57-56.5s25.3-56.5 57-56.5 57 25.1 57 56.5-25.3 56.5-57 56.5z m0-87.9c-17.7 0-31.7 13.8-31.7 31.4s13.9 31.4 31.7 31.4 31.7-13.8 31.7-31.4-14-31.4-31.7-31.4z" fill="#233E49" p-id="6703"></path><path d="M830 572c0 2.8-2.2 5-5 5s-5-2.2-5-5c0-12.8 10.2-23 23-23s23 10.2 23 23c0 2.8-2.2 5-5 5s-5-2.2-5-5c0-7.3-5.7-13-13-13s-13 5.7-13 13zM214.4 250h487.2c33.9 0 61.4 27.5 61.4 61.4v351.3c0 33.9-27.5 61.4-61.4 61.4H214.4c-33.9 0-61.4-27.5-61.4-61.4V311.4c0-33.9 27.5-61.4 61.4-61.4z" fill="#3AD0FA" p-id="6704"></path><path d="M214.4 292.3c-10.5 0-19.1 8.5-19.1 19v351.3c0 10.5 8.5 19 19.1 19h487.2c10.5 0 19.1-8.5 19.1-19V311.4c0-10.5-8.5-19-19.1-19H214.4z m0-42.3h487.2c33.9 0 61.4 27.5 61.4 61.4v351.3c0 33.9-27.5 61.4-61.4 61.4H214.4c-33.9 0-61.4-27.5-61.4-61.4V311.4c0-33.9 27.5-61.4 61.4-61.4z" fill="#233E49" p-id="6705"></path><path d="M370.8 607.9c-4.9 4.9-12.8 4.9-17.7 0-4.9-4.9-4.9-12.8 0-17.7l193-193c4.9-4.9 12.8-4.9 17.7 0 4.9 4.9 4.9 12.8 0 17.7l-193 193z" fill="#FFFFFF" p-id="6706"></path><path d="M326.8 528.3c-4.9 4.9-12.8 4.9-17.7 0-4.9-4.9-4.9-12.8 0-17.7l141.4-141.4c4.9-4.9 12.8-4.9 17.7 0 4.9 4.9 4.9 12.8 0 17.7L326.8 528.3z" fill="#FFFFFF" p-id="6707"></path><path d="M495.8 600.9c-4.9 4.9-12.8 4.9-17.7 0s-4.9-12.8 0-17.7l106.1-106.1c4.9-4.9 12.8-4.9 17.7 0s4.9 12.8 0 17.7L495.8 600.9z" fill="#FFFFFF" p-id="6708"></path><path d="M85.5 438.5m-22.5 0a22.5 22.5 0 1 0 45 0 22.5 22.5 0 1 0-45 0Z" fill="#233E49" p-id="6709"></path><path d="M166.5 782c-9.7 0-17.5-7.8-17.5-17.5s7.8-17.5 17.5-17.5H632c9.7 0 17.5 7.8 17.5 17.5S641.7 782 632 782H166.5z m601.5 0c-9.7 0-17.5-7.8-17.5-17.5S758.3 747 768 747h95.6c9.7 0 17.5 7.8 17.5 17.5s-7.8 17.5-17.5 17.5H768z" fill="#233E49" p-id="6710"></path><path d="M698.5 765.5m-22.5 0a22.5 22.5 0 1 0 45 0 22.5 22.5 0 1 0-45 0Z" fill="#233E49" p-id="6711"></path></svg>