<?xml version="1.0" standalone="no"?><!DOCTYPE svg PUBLIC "-//W3C//DTD SVG 1.1//EN" "http://www.w3.org/Graphics/SVG/1.1/DTD/svg11.dtd"><svg t="1720893992697" class="icon" viewBox="0 0 1024 1024" version="1.1" xmlns="http://www.w3.org/2000/svg" p-id="21437" xmlns:xlink="http://www.w3.org/1999/xlink" width="16" height="16"><path d="M856.357374 220.512253c-1.980097 64.24828-15.792685 126.009925-38.858006 185.838545-27.577079 71.591525-67.953671 134.596488-124.525108 186.656167-4.591575 4.224208-6.031367 8.747221-5.421476 14.697747 1.956561 19.255553 3.52222 38.558178 5.502317 57.81373 4.603855 44.899606-11.06194 81.662905-47.133483 107.74391-38.672788 27.969005-78.923514 53.79623-118.839619 79.993892-25.161053 16.517185-56.087413 1.530866-58.884109-28.429493-3.222391-34.402531-5.755074-68.87567-8.137331-103.346763-1.186012-17.252943-0.725524-17.403369-17.368576-19.612687-44.175105-5.847172-78.750575-26.898627-102.495372-65.09967-12.213159-19.671015-18.267039-41.413202-20.396539-64.259536-0.632403-6.847965-3.384074-8.597819-9.8176-8.954953-35.750225-1.991354-71.476915-4.119831-107.180068-6.813173-29.695323-2.25639-44.750203-33.69031-28.831652-59.920718 11.175527-18.438954 23.077601-36.439934 34.621519-54.660924 12.44238-19.612687 24.780383-39.283702 37.246299-58.872852 22.812565-35.853579 55.69651-55.223742 97.788164-55.56962 24.101931-0.184195 48.248887 4.073782 72.339562 6.675026 4.556783 0.49528 7.791453-0.12689 10.945283-3.660366 55.92573-62.763462 125.146255-105.120153 203.505927-133.456524 44.289716-16.021905 89.868797-26.484188 136.645147-31.318286 23.571858-2.451842 47.305399-3.338025 70.853721 1.035586 12.834306 2.382257 13.490246 2.912329 15.46932 15.492856C855.355557 195.064674 856.920192 207.702506 856.357374 220.512253L856.357374 220.512253zM744.676805 378.992707c0.678452-54.891168-44.600801-102.093213-98.42159-102.978373-55.891961-0.932232-104.302531 39.870056-105.626689 103.577007-1.116427 53.129035 46.822398 101.252055 100.332103 101.620445C697.934225 481.625202 743.973794 436.253852 744.676805 378.992707L744.676805 378.992707zM267.269671 610.950639c10.576893 0.138146 16.447601 4.822842 20.234857 15.676028 14.870686 42.517349 41.930995 74.779124 81.156368 96.648201 8.655124 4.822842 17.783015 8.735965 27.209712 11.95938 16.942881 5.8001 20.809955 22.37459 8.240685 35.127032-18.622126 18.875906-37.44175 37.545104-56.05262 56.410777-6.158257 6.238075-12.93766 9.195429-21.592784 5.961782-8.79327-3.28072-13.041014-9.828856-13.490246-18.968004-0.276293-5.789866-0.138146-11.614525-0.276293-17.425881-0.2415-10.670014-0.345877-10.750855-10.128685-7.504928-20.924565 6.963599-41.804105 13.984503-62.72867 20.936845-6.169513 2.060939-12.361539 2.912329-18.392906-0.517793-8.840342-5.030573-12.177344-14.019295-8.621355-25.080212 6.951319-21.581528 14.238282-43.036165 21.351284-64.559365 3.084245-9.345856 2.888793-9.541307-7.15905-9.701966-6.054903-0.092098-12.131295 0.011256-18.185174-0.287549-8.816806-0.425695-15.089673-4.708232-18.346857-13.087063-3.198855-8.160867-1.151219-15.273868 4.78805-21.281699 19.428491-19.624966 38.950104-39.156812 58.447157-58.712193C257.613754 612.665701 262.217608 610.455359 267.269671 610.950639L267.269671 610.950639z" fill="#d1d5db" p-id="21438"></path></svg>