<svg t="1720946762801" class="icon" viewBox="0 0 1024 1024" version="1.1" xmlns="http://www.w3.org/2000/svg" p-id="9717" width="16" height="16"><path d="M904.1 746.3c10.5-5.9 10.4-18.3 10.5-26.9V52H222.5c-62.5 0-113.1 50.6-113.1 113.1v696.4c0 61 49.5 110.5 110.5 110.5h659.9s8.6-0.8 14.9-4.4c5.7-3.2 19.9-12.9 19.9-33 0-10-5.1-21.4-11.8-27.3-6.3-5.6-14.9-10-19.3-15.8-14.8-19.3-23.8-38.8-23.8-64.9 0-23.3 5.6-41.9 19.3-58.7 4.7-5.8 16.4-16.7 25.1-21.6zM267.9 495.8l124.5-183.9c11.6-17.1 34.8-21.6 51.9-10 0.5 0.3 0.9 0.7 1.4 1l159.9 92.3 104.8-154.8c11.6-17.1 34.8-21.6 51.9-10 17.1 11.6 21.6 34.8 10 51.9L651.8 460.4c-0.5 1.2-1.1 2.4-1.8 3.6-7 12.1-19.6 18.8-32.6 18.7-7.4 0.1-14.8-2-21.4-6.4-0.7-0.5-1.4-1-2-1.5l-159.3-92-104.9 154.9c-11.6 17.1-34.8 21.6-51.9 10-17.1-11.5-21.6-34.8-10-51.9z m545.9 401.4h-580c-28.6 0-51.8-23.2-51.8-51.8V808c0-28.7 23.3-52 52-52h580.8s-19.5 24-19.5 70.6 18.5 70.6 18.5 70.6z" fill="#d1d5db" p-id="9718"></path></svg>