<svg t="1720896357540" class="icon" viewBox="0 0 1024 1024" version="1.1" xmlns="http://www.w3.org/2000/svg" p-id="3426" width="16" height="16"><path d="M773.3 64c82.1 0 149.3 67.2 149.3 149.3v657.1c0 41.1-33.6 74.7-74.7 74.7-14.9 0-26.1-3.7-37.3-11.2l-104.5-59.7c-14.9-7.5-29.9-7.5-41.1 3.7l-67.2 52.3c-26.1 18.7-56 29.9-85.9 29.9s-59.7-11.2-85.9-29.9l-63.5-52.3c-11.2-11.2-29.9-11.2-41.1-3.7l-108.3 59.7c-18.7 11.2-37.3 11.2-56 7.5s-37.3-18.7-44.8-33.6c-7.5-11.2-11.2-26.1-11.2-37.3V213.3c0-82.1 67.2-149.3 149.3-149.3h522.9z m97.1 806.4V213.3c0-52.3-41.1-93.3-93.3-93.3H250.7c-52.3 0-93.3 41.1-93.3 93.3v657.1c0 3.7 0 7.5 3.7 11.2s7.5 7.5 11.2 7.5 11.2 0 14.9-3.7l104.5-59.7c14.9-7.5 29.9-14.9 44.8-14.9 22.4 0 41.1 7.5 59.7 22.4l67.2 52.3c29.9 22.4 70.9 22.4 100.8 0l67.2-52.3c29.9-22.4 70.9-26.1 104.5-7.5l104.5 59.7c11.3 7.4 30-3.8 30-15zM616.5 489.6c14.9 3.7 26.1 14.9 26.1 29.9 0 18.7-11.2 29.9-29.9 29.9H485.9c-18.7 0-29.9-11.2-29.9-29.9v-127c0-18.7 11.2-29.9 29.9-29.9 14.9 0 29.9 11.2 29.9 29.9v97.1h100.7z" fill="#374151" p-id="3427"></path></svg>