<svg xmlns="http://www.w3.org/2000/svg" xmlns:xlink="http://www.w3.org/1999/xlink" fill="none" version="1.1" width="13.435937523841858" height="14.601562142372131" viewBox="0 0 13.435937523841858 14.601562142372131"><g><path d="M10.803100011920929,0.30000001192092896C12.085900011920929,0.30000001192092896,13.13590001192093,1.350000011920929,13.13590001192093,2.632810011920929L13.13590001192093,12.900000011920929C13.13590001192093,13.54220001192093,12.61090001192093,14.06720001192093,11.968700011920928,14.06720001192093C11.73590001192093,14.06720001192093,11.560900011920928,14.00940001192093,11.38590001192093,13.892200011920929L9.75312001192093,12.959400011920929C9.520310011920929,12.842200011920928,9.285940011920928,12.842200011920928,9.11094001192093,13.017200011920929L8.060940011920929,13.834400011920929C7.653130011920929,14.126600011920928,7.185940011920929,14.301600011920929,6.718750011920929,14.301600011920929C6.251560011920929,14.301600011920929,5.785940011920929,14.126600011920928,5.376560011920929,13.834400011920929L4.384380011920929,13.017200011920929C4.209370011920929,12.842200011920928,3.917190011920929,12.842200011920928,3.742190011920929,12.959400011920929L2.050000011920929,13.892200011920929C1.757810011920929,14.06720001192093,1.467190011920929,14.06720001192093,1.175000011920929,14.00940001192093C0.882813011920929,13.95160001192093,0.5921870119209289,13.717200011920928,0.47500001192092894,13.484400011920929C0.35781251192092894,13.309400011920928,0.30000001192092896,13.07660001192093,0.30000001192092896,12.901600011920928L0.30000001192092896,2.632810011920929C0.30000001192092896,1.350000011920929,1.350000011920929,0.30000001192092896,2.632810011920929,0.30000001192092896L10.803100011920929,0.30000001192092896ZM12.32030001192093,12.900000011920929L12.32030001192093,2.632810011920929C12.32030001192093,1.815620011920929,11.678100011920929,1.175000011920929,10.862500011920929,1.175000011920929L2.637500011920929,1.175000011920929C1.820310011920929,1.175000011920929,1.179688011920929,1.817190011920929,1.179688011920929,2.632810011920929L1.179688011920929,12.900000011920929C1.179688011920929,12.957800011920929,1.179688011920929,13.017200011920929,1.237500011920929,13.07500001192093C1.295312011920929,13.13280001192093,1.3546900119209289,13.19220001192093,1.412500011920929,13.19220001192093C1.470310011920929,13.19220001192093,1.587500011920929,13.19220001192093,1.645310011920929,13.13440001192093L3.278120011920929,12.20160001192093C3.510940011920929,12.084400011920929,3.745310011920929,11.968700011920928,3.978120011920929,11.968700011920928C4.328120011920929,11.968700011920928,4.620310011920929,12.085900011920929,4.910940011920929,12.31870001192093L5.960940011920929,13.13590001192093C6.428120011920929,13.48590001192093,7.068750011920929,13.48590001192093,7.535940011920929,13.13590001192093L8.585940011920929,12.31870001192093C9.05313001192093,11.968700011920928,9.69375001192093,11.91090001192093,10.218750011920928,12.20160001192093L11.85160001192093,13.13440001192093C12.028100011920928,13.250000011920928,12.32030001192093,13.07500001192093,12.32030001192093,12.900000011920929ZM8.353130011920928,6.950000011920929C8.585940011920929,7.007810011920929,8.76094001192093,7.182810011920929,8.76094001192093,7.417190011920929C8.76094001192093,7.709380011920929,8.585940011920929,7.884380011920929,8.29375001192093,7.884380011920929L6.312500011920929,7.884380011920929C6.0203100119209285,7.884380011920929,5.845310011920929,7.709380011920929,5.845310011920929,7.417190011920929L5.845310011920929,5.432810011920929C5.845310011920929,5.140620011920929,6.0203100119209285,4.965630011920929,6.312500011920929,4.965630011920929C6.545310011920929,4.965630011920929,6.779690011920929,5.140630011920929,6.779690011920929,5.432810011920929L6.779690011920929,6.950000011920929L8.353130011920928,6.950000011920929Z" fill="#374151" fill-opacity="1"/><path d="M10.803100011920929,1.1920928966180355e-8L2.632810011920929,1.1920928966180355e-8Q1.546440011920929,1.1920928966180355e-8,0.7732200119209289,0.7732200119209289Q1.1920928966180355e-8,1.546440011920929,1.1920928966180355e-8,2.632810011920929L1.1920928966180355e-8,12.901600011920928Q1.1920928966180355e-8,13.304700011920929,0.21543821192092893,13.635700011920928Q0.49828701192092895,14.181300011920928,1.116771011920929,14.30370001192093Q1.737430011920929,14.426500011920929,2.199270011920929,14.152500011920928L3.898350011920929,13.21590001192093L3.9091100119209288,13.208600011920929Q4.0543300119209285,13.11140001192093,4.172240011920929,13.229300011920929L4.182480011920929,13.23960001192093L5.193840011920929,14.07250001192093L5.202280011920929,14.07860001192093Q5.935050011920929,14.60160001192093,6.718750011920929,14.60160001192093Q7.505260011920929,14.60160001192093,8.23566001192093,14.078200011920929L8.240500011920929,14.07480001192093L9.309900011920929,13.24250001192093L9.32307001192093,13.229300011920929Q9.421550011920928,13.130800011920929,9.61179001192093,13.224100011920928L11.228400011920929,14.147700011920929Q11.561800011920928,14.367200011920929,11.968700011920928,14.367200011920929Q12.574700011920928,14.367200011920929,13.005300011920928,13.936500011920929Q13.435900011920928,13.505900011920929,13.435900011920928,12.900000011920929L13.435900011920928,2.632810011920929Q13.435900011920928,1.546440011920929,12.66270001192093,0.7732200119209289Q11.889500011920928,1.1920928966180355e-8,10.803100011920929,1.1920928966180355e-8ZM1.197484011920929,1.197484011920929Q1.7949700119209289,0.600000011920929,2.632810011920929,0.600000011920929L10.803100011920929,0.600000011920929Q11.641000011920928,0.600000011920929,12.238500011920928,1.197484011920929Q12.835900011920929,1.7949700119209289,12.835900011920929,2.632810011920929L12.835900011920929,12.900000011920929Q12.835900011920929,13.257400011920929,12.58100001192093,13.51230001192093Q12.326100011920929,13.767200011920929,11.968700011920928,13.767200011920929Q11.738400011920929,13.767200011920929,11.55290001192093,13.64290001192093L11.544000011920929,13.637000011920929L9.895070011920929,12.695000011920929L9.88801001192093,12.69140001192093Q9.315880011920928,12.40340001192093,8.91320001192093,12.790900011920929L7.881500011920929,13.59390001192093Q7.310060011920929,14.001600011920928,6.718750011920929,14.001600011920928Q6.131440011920929,14.001600011920928,5.5590900119209286,13.596100011920928L4.585550011920929,12.794200011920928Q4.128380011920929,12.34770001192093,3.586730011920929,12.702500011920929L1.900470011920929,13.63210001192093L1.895850011920929,13.634800011920928Q1.630580011920929,13.79370001192093,1.2332290119209288,13.71510001192093Q0.8931150119209289,13.647800011920928,0.742967011920929,13.349500011920929L0.734612011920929,13.332900011920929L0.7242720119209289,13.317500011920929Q0.600000011920929,13.131900011920928,0.600000011920929,12.901600011920928L0.600000011920929,2.632810011920929Q0.600000011920929,1.7949700119209289,1.197484011920929,1.197484011920929ZM11.69600001192093,13.391000011920928L10.073460011920929,12.464000011920929Q9.39425001192093,12.08800001192093,8.77019001192093,12.555500011920929L7.7158100119209285,13.37600001192093Q6.748440011920929,14.10080001192093,5.776680011920929,13.372700011920928L4.723370011920929,12.55290001192093Q4.368680011920929,12.268700011920929,3.978120011920929,12.268700011920929Q3.813350011920929,12.268700011920929,3.419980011920929,12.46600001192093L1.817530011920929,13.381500011920929Q1.673370011920929,13.492200011920929,1.412500011920929,13.492200011920929Q1.230423011920929,13.492200011920929,1.0253670119209288,13.287100011920929Q0.8796880119209289,13.141400011920929,0.8796880119209289,12.900000011920929L0.8796880119209289,2.632810011920929Q0.8796880119209289,1.8966200119209289,1.3899400119209289,1.385990011920929Q1.9005500119209289,0.8750000119209289,2.637500011920929,0.8750000119209289L10.862500011920929,0.8750000119209289Q11.59870001192093,0.8750000119209289,12.10930001192093,1.385250011920929Q12.620300011920929,1.895860011920929,12.620300011920929,2.632810011920929L12.620300011920929,12.900000011920929Q12.620300011920929,13.215000011920928,12.29430001192093,13.39040001192093Q11.97040001192093,13.564600011920929,11.69600001192093,13.391000011920928ZM12.020300011920929,12.900000011920929L12.015900011920928,12.883400011920928L12.008300011920928,12.87840001192093L10.364000011920929,11.939100011920928Q9.345200011920928,11.37510001192093,8.401680011920929,12.082000011920929L7.356070011920929,12.89580001192093Q6.748440011920929,13.351100011920929,6.145190011920929,12.899200011920929L5.098500011920929,12.084600011920928Q4.579370011920929,11.66870001192093,3.978120011920929,11.66870001192093Q3.669400011920929,11.66870001192093,3.143240011920929,11.933600011920928L3.136180011920929,11.937200011920929L1.4796900119209289,12.88350001192093L1.4796900119209289,2.632810011920929Q1.4796900119209289,2.145020011920929,1.8143600119209289,1.810100011920929Q2.149210011920929,1.475000011920929,2.637500011920929,1.475000011920929L10.862500011920929,1.475000011920929Q11.350300011920929,1.475000011920929,11.685200011920928,1.809670011920929Q12.020300011920929,2.144520011920929,12.020300011920929,2.632810011920929L12.020300011920929,12.900000011920929ZM7.079690011920929,6.650000011920929L8.389820011920929,6.650000011920929L8.425430011920929,6.658840011920929Q9.060940011920929,6.816650011920929,9.060940011920929,7.417190011920929Q9.060940011920929,8.18438001192093,8.29375001192093,8.18438001192093L6.312500011920929,8.18438001192093Q5.969100011920929,8.18438001192093,5.757200011920929,7.972480011920929Q5.545310011920929,7.760590011920929,5.545310011920929,7.417190011920929L5.545310011920929,5.432810011920929Q5.545310011920929,4.665620011920929,6.312500011920929,4.665620011920929Q6.614480011920929,4.665620011920929,6.835960011920929,4.868360011920929Q7.079690011920929,5.091460011920929,7.079690011920929,5.432810011920929L7.079690011920929,6.650000011920929ZM6.479690011920929,5.432810011920929L6.479690011920929,7.250000011920929L8.312070011920929,7.250000011920929Q8.460940011920929,7.297810011920929,8.460940011920929,7.417190011920929Q8.460940011920929,7.584380011920929,8.29375001192093,7.584380011920929L6.312500011920929,7.584380011920929Q6.1453100119209285,7.584380011920929,6.1453100119209285,7.417190011920929L6.1453100119209285,5.432810011920929Q6.1453100119209285,5.265630011920929,6.312500011920929,5.265630011920929Q6.479690011920929,5.265630011920929,6.479690011920929,5.432810011920929Z" fill-rule="evenodd" fill="#000000" fill-opacity="1"/></g></svg>