<?xml version="1.0" standalone="no"?><!DOCTYPE svg PUBLIC "-//W3C//DTD SVG 1.1//EN" "http://www.w3.org/Graphics/SVG/1.1/DTD/svg11.dtd"><svg t="1720893528925" class="icon" viewBox="0 0 1024 1024" version="1.1" xmlns="http://www.w3.org/2000/svg" p-id="5136" width="16" height="16" xmlns:xlink="http://www.w3.org/1999/xlink"><path d="M715.648 64c130.752 0 237.44 94.08 244.032 212.48L960 288v448c0 119.872-102.656 217.728-231.808 223.68l-12.544 0.32H308.352c-130.752 0-237.44-94.08-244.032-212.48L64 736v-448l0.32-11.52c6.336-114.56 106.496-206.4 231.488-212.16L308.352 64h407.296z m0 77.632H308.352c-86.72 0-156.48 57.984-165.568 128.128l-0.832 8.832-0.32 9.408v448c0 76.16 67.712 141.184 156.032 146.048l10.688 0.32h407.296c89.92 0 161.024-62.08 166.4-137.28l0.32-9.088v-448c0-76.16-67.712-141.184-156.032-146.048l-10.688-0.32z m-33.92 146.368c20.608 1.728 35.776 18.432 33.92 37.312V400c0 20.608-18.24 37.312-40.768 37.312-22.464 0-40.704-16.64-40.704-37.312v-37.312H552.704v298.624h40.768c22.464 0 40.704 16.704 40.704 37.376 0 20.608-18.24 37.312-40.704 37.312H430.528c-22.464 0-40.704-16.704-40.704-37.312 0-20.608 18.24-37.376 40.704-37.376h40.768V362.688H389.76v37.312c0 20.608-18.24 37.312-40.704 37.312-22.528 0-40.768-16.64-40.768-37.312V325.312v-5.824c1.408-16.512 15.68-30.08 34.24-31.488z" p-id="5137"></path></svg>