<?xml version="1.0" standalone="no"?><!DOCTYPE svg PUBLIC "-//W3C//DTD SVG 1.1//EN" "http://www.w3.org/Graphics/SVG/1.1/DTD/svg11.dtd"><svg t="1720892922878" class="icon" viewBox="0 0 1024 1024" version="1.1" xmlns="http://www.w3.org/2000/svg" p-id="3466" width="16" height="16" xmlns:xlink="http://www.w3.org/1999/xlink"><path d="M0 0m292.571429 0l438.857142 0q292.571429 0 292.571429 292.571429l0 438.857142q0 292.571429-292.571429 292.571429l-438.857142 0q-292.571429 0-292.571429-292.571429l0-438.857142q0-292.571429 292.571429-292.571429Z" fill="#FFFFFF" p-id="3467"></path><path d="M292.571429 87.771429a204.8 204.8 0 0 0-204.8 204.8v438.857142a204.8 204.8 0 0 0 204.8 204.8h438.857142a204.8 204.8 0 0 0 204.8-204.8v-438.857142a204.8 204.8 0 0 0-204.8-204.8h-438.857142m0-87.771429h438.857142a292.571429 292.571429 0 0 1 292.571429 292.571429v438.857142a292.571429 292.571429 0 0 1-292.571429 292.571429h-438.857142a292.571429 292.571429 0 0 1-292.571429-292.571429v-438.857142a292.571429 292.571429 0 0 1 292.571429-292.571429z" fill="#CCCED6" p-id="3468"></path><path d="M468.114286 760.685714v-380.342857h-168.228572a43.885714 43.885714 0 0 1-43.885714-43.885714 43.885714 43.885714 0 0 1 43.885714-43.885714h424.228572a43.885714 43.885714 0 0 1 43.885714 43.885714 43.885714 43.885714 0 0 1-43.885714 43.885714h-168.228572v380.342857a43.885714 43.885714 0 0 1-43.885714 43.885715 43.885714 43.885714 0 0 1-43.885714-43.885715z" fill="#CCCED6" p-id="3469"></path></svg>