<svg t="1720947619906" class="icon" viewBox="0 0 1024 1024" version="1.1" xmlns="http://www.w3.org/2000/svg" p-id="11290" width="16" height="16"><path d="M781.19 0.792H242.81C109.972 0.792 1.287 109.477 1.287 242.315v538.38c0 132.838 108.685 241.523 241.523 241.523h538.38c132.838 0 241.523-108.685 241.523-241.523v-538.38C1022.713 109.477 914.028 0.792 781.19 0.792z m-34.645 321.602c0 26.132-21.38 47.513-47.513 47.513H559.463v330.907c0 26.132-21.38 47.513-47.512 47.513s-47.513-21.381-47.513-47.513V369.907h-139.57c-26.131 0-47.512-21.38-47.512-47.513s21.38-47.513 47.513-47.513h374.064c26.231 0 47.612 21.381 47.612 47.513z" p-id="11291" fill="#d1d5db"></path></svg>